<?xml version="1.0" encoding="UTF-8" standalone="no"?>
<!-- Created with Inkscape (http://www.inkscape.org/) -->

<svg
   xmlns:dc="http://purl.org/dc/elements/1.1/"
   xmlns:cc="http://creativecommons.org/ns#"
   xmlns:rdf="http://www.w3.org/1999/02/22-rdf-syntax-ns#"
   xmlns:svg="http://www.w3.org/2000/svg"
   xmlns="http://www.w3.org/2000/svg"
   xmlns:sodipodi="http://sodipodi.sourceforge.net/DTD/sodipodi-0.dtd"
   xmlns:inkscape="http://www.inkscape.org/namespaces/inkscape"
   width="372.04724"
   height="262.20471"
   id="svg3144"
   version="1.1"
   inkscape:version="0.48.4 r9939"
   sodipodi:docname="drawing.svg">
  <defs
     id="defs3146" />
  <sodipodi:namedview
     id="base"
     pagecolor="#ffff00"
     bordercolor="#666666"
     borderopacity="1.0"
     inkscape:pageopacity="0"
     inkscape:pageshadow="2"
     inkscape:zoom="0.98994949"
     inkscape:cx="5.8092099"
     inkscape:cy="244.18657"
     inkscape:document-units="px"
     inkscape:current-layer="layer1"
     showgrid="false"
     inkscape:window-width="1279"
     inkscape:window-height="844"
     inkscape:window-x="290"
     inkscape:window-y="217"
     inkscape:window-maximized="0"
     inkscape:snap-grids="false"
     inkscape:snap-to-guides="false" />
  <metadata
     id="metadata3149">
    <rdf:RDF>
      <cc:Work
         rdf:about="">
        <dc:format>image/svg+xml</dc:format>
        <dc:type
           rdf:resource="http://purl.org/dc/dcmitype/StillImage" />
        <dc:title></dc:title>
      </cc:Work>
    </rdf:RDF>
  </metadata>
  <g
     inkscape:label="Layer 1"
     inkscape:groupmode="layer"
     id="layer1"
     style="display:inline"
     transform="translate(0,-790.15744)">
    <path
       inkscape:connector-curvature="0"
       d="m 72.358577,833.42082 c 25.0125,-8.2375 52.612503,-12.65 78.337503,-5 18.16249,5.2125 33.59999,17.5375 44.62499,32.6625 6.1625,8.2 11.2625,17.1 16.325,26 -7.5875,3.4 -15.0625,7.025 -22.6375,10.4625 -3.85,-7.0625 -7.65,-14.15 -11.725,-21.075 -4.525,6.125 -9.1,12.225 -14.35,17.7375 -5.95,6.2875 -11.23749,13.3625 -14.18749,21.5875 -3.9375,1.7375 -7.9375,3.3375 -11.9625,4.8875 6.3875,-7.125 13.5625,-13.9125 17.16249,-23 4.26251,-11.175 9.45,-22.0625 16.25,-31.9375 -3.5625,-5.475 -7.7875,-10.5 -12.48749,-15.025 -5.1375,8.7 -11.375,16.65 -17.3875,24.7375 -7.7625,10.4875 -18.0125,18.9625 -24.8125,30.1875 -5.2625,8.0625 -7.1125,17.6875 -11.375,26.2375 -6.250003,1.7875 -12.625003,3.15 -19.050003,4.15 7.2375,-13.0875 20.337493,-21.6125 27.525003,-34.7125 4.5625,-7.625 6.8625,-16.275 10.7375,-24.2125 6.25,-12.4875 12.9375,-24.85 21.6875,-35.8 -5,-2.5875 -10.1875,-4.9 -15.6875,-6.2125 -6.9375,14.5875 -17.075,27.2875 -26.95,39.95 -10.275003,11.9625 -22.512503,23.1 -27.812503,38.4 -2.8125,8.4375 -6.1375,16.8 -11.5625,23.95 -5.2875,-0.25 -10.55,-0.95 -15.724996,-2.0875 7.399996,-14.2375 21.487496,-23.3375 29.374996,-37.225 5.7125,-9.1125 8.15,-19.75 13.2,-29.1875 5.0375,-9.4375 9.875,-19.05 16.174993,-27.725 2.13751,-3.1 4.65001,-5.925 6.51251,-9.2125 -10.8,-0.7625 -21.650003,-0.2 -32.387503,1.0375 -2.5875,0.3 -5.2125,0.85 -7.8125,0.425"
       style="fill:#c44f34;fill-opacity:1;fill-rule:nonzero;stroke:none"
       id="path3051"
       inkscape:export-filename="/home/samu/Pictures/path3085.png"
       inkscape:export-xdpi="90"
       inkscape:export-ydpi="90" />
    <path
       inkscape:connector-curvature="0"
       d="m 247.57107,871.45832 c 21.1875,-8.3875 43.2,-15.8625 66.15,-17.025 13.8375,-0.65 28.725,1.9125 39.55,11.125 8.3625,7.025 13.2125,17.3625 15.1375,27.9625 -5.625,-7.3375 -11.9875,-14.1125 -19.5125,-19.5125 l -0.375,-0.6 c -2.65,-1.0125 -5.1625,-2.325 -7.7125,-3.5375 -6.2375,-2.6625 -13.0125,-3.8625 -19.775,-3.9375 -4.1,-0.0375 -8.1875,0.25 -12.2375,0.8375 -6.925,1.1 -13.7875,2.675 -20.4625,4.8375 -3.8125,1.3125 -7.625,2.625 -11.425,3.9625 -19.75,7.1875 -38.575,16.5625 -57.6375,25.325 -7.3875,3.525 -14.7625,7.075 -22.2125,10.4625 -33.125,15.15 -67.07499,29.9875 -103.374993,35.375 -19.8125,2.6875 -41.1625,2.1625 -59.149996,-7.5375 -7.8125,-4.25 -14.7125,-10.2875 -19.675,-17.7 10.1375,6.0125 20.775,11.4875 32.4375,13.8125 5.174996,1.1375 10.437496,1.8375 15.724996,2.0875 7.3875,0.2875 14.775,-0.2625 22.0625,-1.3625 6.425,-1 12.8,-2.3625 19.050003,-4.15 11.0875,-3.0625 22.0625,-6.675 32.65,-11.2 4.025,-1.55 8.025,-3.15 11.9625,-4.8875 13.63749,-5.625 26.87499,-12.0875 40.26249,-18.25 7.575,-3.4375 15.05,-7.0625 22.6375,-10.4625 11.8,-5.6 23.825,-10.7 35.925,-15.625"
       style="fill:#1046c4;fill-opacity:1;fill-rule:nonzero;stroke:none"
       id="path3057"
       inkscape:export-filename="/home/samu/Pictures/path3085.png"
       inkscape:export-xdpi="90"
       inkscape:export-ydpi="90" />
    <path
       inkscape:connector-curvature="0"
       d="m 308.79607,866.77082 c 4.05,-0.5875 8.1375,-0.875 12.2375,-0.8375 -7.4125,10.5125 -17.8875,18.825 -23.1125,30.85 -6.8625,16.2125 -15.075,31.9875 -25.825,46 7.35,0.425 14.825,0.3625 22.0625,-1.0875 4.4625,-7.45 8.7375,-15.075 14.275,-21.8375 8.05,-11.875 20.4875,-20.7875 25.525,-34.625 1.8125,-5.3125 3.8375,-10.5875 6.85,-15.3625 2.55,1.2125 5.0625,2.525 7.7125,3.5375 l 0.375,0.6 c 0,0.775 -0.0125,2.325 -0.025,3.1 -4.3875,3.7 -8.0875,8.2 -11.8875,12.5 -6.15,7.125 -8.9625,16.2125 -12.625,24.7 -4.2125,8.5125 -8.7375,16.9125 -14.4,24.55 9.325,-1.8875 18.3125,-5.1 27.575,-7.2125 -20.2875,10.6 -42.025,19.425 -65.0375,21.3625 -16,1.375 -32.675,-1.5375 -46.4,-10.15 -12.2625,-7.725 -21.4875,-19.3 -29.0375,-31.5 7.45,-3.3875 14.825,-6.9375 22.2125,-10.4625 6.0375,10.55 12.575,21.0625 21.65,29.3 7.425,-12.7625 17.1375,-23.9375 26.2375,-35.4875 4.375,-5.7625 6.65,-12.6875 9.75,-19.1375 3.8,-1.3375 7.6125,-2.65 11.425,-3.9625 -3.8625,5.0625 -7.9125,9.975 -12.1375,14.75 -5.475,6.2375 -8.8375,13.8875 -12.25,21.35 -4.675,9.55 -9.9625,18.8625 -16.4375,27.3375 4.0625,2.4875 8.475,4.325 12.95,5.9125 6.4375,-11.65 14.2,-22.5 22.525,-32.875 5.8875,-7.0375 12.35,-13.7125 16.9375,-21.725 3.6125,-6.225 5.45,-13.275 8.875,-19.5875"
       style="fill:#c44f34;fill-opacity:1;fill-rule:nonzero;stroke:none"
       id="path3061"
       inkscape:export-filename="/home/samu/Pictures/path3085.png"
       inkscape:export-xdpi="90"
       inkscape:export-ydpi="90" />
    <path
       style="fill:#1046c4;fill-opacity:1;fill-rule:nonzero;stroke:none"
       d="m 43.998415,958.82543 c -3.8125,0.0375 -7.6375,0.0438 -11.4375,0.0937 -7.5125,17.5 -15.143749,34.96248 -22.7187497,52.43752 4.2249997,0.037 8.4312497,0.044 12.6562497,-0.031 1.5875,-3.75 3.225,-7.4937 4.875,-11.2187 7.4125,0.1125 14.850004,-0.24377 22.25,0.2187 1.35,3.675 3.025,7.2125 4.4375,10.875 4.25,0.275 8.55,0.1813 12.8125,0.1563 -7.65,-17.48754 -15.112504,-35.08127 -22.875,-52.53127 z m -5.5,16.15625 c 2.25,4.8625 4.2625,9.85 6.4375,14.75 -4.375,0.0375 -8.775,0.18125 -13.125,-0.15625 2.3625,-4.8 4.1,-9.90625 6.6875,-14.59375 z"
       id="path3069"
       inkscape:connector-curvature="0" />
    <path
       style="fill:#1046c4;fill-opacity:1;fill-rule:nonzero;stroke:none"
       d="m 73.217165,958.48168 c -0.625,17.575 -0.025,35.22498 -0.3125,52.81252 11.4125,-0.375 23.475002,1.8062 34.312505,-2.8438 17.9375,-7.9 18.5625,-38.04372 0.8125,-46.53122 -10.850003,-5.2375 -23.225005,-2.6375 -34.812505,-3.4375 z m 14.40625,10.34375 c 6.672046,-0.10459 14.096875,0.16562 18.406255,5.875 3.6125,5.3875 3.76875,12.74375 1.21875,18.59375 -3.95,8.05002 -14.962505,8.62502 -22.375005,7.06252 -0.1375,-10.48754 -0.025,-20.98127 -0.0625,-31.46877 0.910938,-0.0156 1.859351,-0.0476 2.8125,-0.0625 z"
       id="path3071"
       inkscape:connector-curvature="0" />
    <path
       inkscape:connector-curvature="0"
       d="m 130.40858,958.94582 c 12.725,-0.15 25.44999,-0.0625 38.17499,-0.05 -0.025,3.475 -0.025,6.95 -0.0125,10.4125 -8.6625,0.1 -17.32499,0.1125 -25.98749,-0.0125 -0.4625,3.575 -0.2625,7.175 -0.2625,10.775 7.8625,0.125 15.7375,-0.025 23.61249,0.0875 -0.0375,3.3 -0.0375,6.6 0.0125,9.9 -7.87499,0.1375 -15.74999,0.025 -23.62499,0.0625 -0.0125,3.625 -0.1625,7.26252 0.225,10.87498 8.9375,-0.125 17.88749,-0.05 26.82499,-0.05 0.025,3.475 0.025,6.95 0,10.425 -12.98749,-0.038 -25.97499,0.087 -38.94999,-0.062 0.0625,-17.44998 0.075,-34.91248 -0.0125,-52.36248"
       style="fill:#1046c4;fill-opacity:1;fill-rule:nonzero;stroke:none"
       id="path3073"
       inkscape:export-filename="/home/samu/Pictures/path3085.png"
       inkscape:export-xdpi="90"
       inkscape:export-ydpi="90" />
    <path
       inkscape:connector-curvature="0"
       d="m 179.12107,958.93332 c 3.75,-0.475 7.55,-0.3 11.3125,-0.1375 8.575,10.925 16.45,22.4625 25.575,32.9125 0.15,-11.0125 0,-22.0125 0.075,-33.0125 3.9375,-0.05 7.8875,-0.05 11.8375,0.0125 0.025,17.55 0,35.1 0,52.64998 -3.925,0.013 -7.85,0.013 -11.775,0.025 -8.4375,-10.7625 -16.4,-21.91248 -25,-32.53748 -0.175,10.825 -0.075,21.66248 -0.0625,32.48748 -3.975,0.062 -7.95,0.062 -11.9125,-0.025 0.0375,-17.46248 0.125,-34.92498 -0.05,-52.37498"
       style="fill:#1046c4;fill-opacity:1;fill-rule:nonzero;stroke:none"
       id="path3075"
       inkscape:export-filename="/home/samu/Pictures/path3085.png"
       inkscape:export-xdpi="90"
       inkscape:export-ydpi="90" />
    <path
       inkscape:connector-curvature="0"
       d="m 240.37107,958.90832 c 3.9625,-0.4375 7.9625,-0.2125 11.9375,-0.2125 0.0125,17.55 -0.0125,35.1 0.0125,52.64998 -3.975,0.05 -7.95,0.075 -11.925,-0.075 0.0875,-17.44998 0.1375,-34.91248 -0.025,-52.36248"
       style="fill:#1046c4;fill-opacity:1;fill-rule:nonzero;stroke:none"
       id="path3077"
       inkscape:export-filename="/home/samu/Pictures/path3085.png"
       inkscape:export-xdpi="90"
       inkscape:export-ydpi="90" />
    <path
       inkscape:connector-curvature="0"
       d="m 265.40857,958.83332 c 3.7625,-0.275 7.525,-0.2375 11.2875,-0.025 8.4875,11.2125 17,22.3875 25.5875,33.525 0.0875,-11.2125 0,-22.425 0.05,-33.6375 3.9375,-0.05 7.8875,-0.05 11.825,0 0.0375,17.5625 0.025,35.1125 0.0125,52.67498 -3.9375,0 -7.875,0 -11.8,0 -8.4125,-10.7625 -16.3375,-21.91248 -24.9875,-32.47498 -0.1625,10.8125 -0.0625,21.62498 -0.05,32.43748 -3.975,0.062 -7.95,0.062 -11.9125,-0.025 0.05,-17.48748 0.075,-34.97498 -0.0125,-52.47498"
       style="fill:#1046c4;fill-opacity:1;fill-rule:nonzero;stroke:none"
       id="path3079"
       inkscape:export-filename="/home/samu/Pictures/path3085.png"
       inkscape:export-xdpi="90"
       inkscape:export-ydpi="90" />
    <path
       inkscape:connector-curvature="0"
       d="m 326.63357,958.99582 c 12.7375,-0.2625 25.4625,-0.0875 38.2,-0.0875 -0.0375,3.45 -0.0375,6.9 0,10.35 -8.775,0.4125 -17.575,-0.2625 -26.35,0.35 0.0875,3.4875 0.0875,6.975 0.075,10.4625 7.8875,0.15 15.7625,-0.0625 23.65,0.125 -0.0625,3.275 -0.0625,6.5625 0,9.85 -7.8875,0.1625 -15.7625,0.025 -23.6375,0.0875 -0.0125,3.6125 -0.175,7.25002 0.2375,10.84998 8.9375,-0.1 17.875,-0.038 26.8125,-0.025 0.0125,3.4625 0.0125,6.9375 0.0125,10.4125 -13,-0.05 -25.9875,0.1125 -38.975,-0.087 0.075,-17.42498 0.1125,-34.86248 -0.025,-52.28748"
       style="fill:#1046c4;fill-opacity:1;fill-rule:nonzero;stroke:none"
       id="path3081"
       inkscape:export-filename="/home/samu/Pictures/path3085.png"
       inkscape:export-xdpi="90"
       inkscape:export-ydpi="90" />
  </g>
</svg>
